<mxfile host="Electron" modified="2024-01-05T07:01:13.036Z" agent="Mozilla/5.0 (X11; Linux x86_64) AppleWebKit/537.36 (KHTML, like Gecko) draw.io/22.1.16 Chrome/120.0.6099.109 Electron/28.1.0 Safari/537.36" etag="crvpa7isOyGyP6B3zu8l" version="22.1.16" type="device">
  <diagram name="Page-1" id="B2Dq1C7qUuRjKt64bPmF">
    <mxGraphModel dx="1947" dy="1692" grid="1" gridSize="10" guides="1" tooltips="1" connect="1" arrows="1" fold="1" page="1" pageScale="1" pageWidth="827" pageHeight="1169" math="0" shadow="0">
      <root>
        <mxCell id="0" />
        <mxCell id="1" parent="0" />
        <mxCell id="mabKHqCAzxkNhyvPXsgx-4" value="" style="edgeStyle=orthogonalEdgeStyle;rounded=0;orthogonalLoop=1;jettySize=auto;html=1;" parent="1" source="mabKHqCAzxkNhyvPXsgx-1" target="mabKHqCAzxkNhyvPXsgx-3" edge="1">
          <mxGeometry relative="1" as="geometry" />
        </mxCell>
        <mxCell id="eGzTbKaTsQihf1F2vK01-3" value="" style="edgeStyle=orthogonalEdgeStyle;rounded=0;orthogonalLoop=1;jettySize=auto;html=1;" parent="1" source="mabKHqCAzxkNhyvPXsgx-1" target="eGzTbKaTsQihf1F2vK01-2" edge="1">
          <mxGeometry relative="1" as="geometry" />
        </mxCell>
        <mxCell id="eGzTbKaTsQihf1F2vK01-25" style="edgeStyle=orthogonalEdgeStyle;rounded=0;orthogonalLoop=1;jettySize=auto;html=1;" parent="1" source="mabKHqCAzxkNhyvPXsgx-1" target="eGzTbKaTsQihf1F2vK01-24" edge="1">
          <mxGeometry relative="1" as="geometry" />
        </mxCell>
        <mxCell id="eGzTbKaTsQihf1F2vK01-31" style="edgeStyle=orthogonalEdgeStyle;rounded=0;orthogonalLoop=1;jettySize=auto;html=1;entryX=0.5;entryY=1;entryDx=0;entryDy=0;" parent="1" source="mabKHqCAzxkNhyvPXsgx-1" target="eGzTbKaTsQihf1F2vK01-30" edge="1">
          <mxGeometry relative="1" as="geometry" />
        </mxCell>
        <mxCell id="mabKHqCAzxkNhyvPXsgx-1" value="&lt;b&gt;&lt;font style=&quot;font-size: 14px;&quot;&gt;User - hi&lt;br&gt;Bot - Hi, this is your vitrual assistant to help you buy or sell a car. I can also get you the status of you order.&lt;br&gt;How can I help you today?&lt;/font&gt;&lt;/b&gt;" style="rounded=1;whiteSpace=wrap;html=1;" parent="1" vertex="1">
          <mxGeometry x="120" y="120" width="200" height="120" as="geometry" />
        </mxCell>
        <mxCell id="mabKHqCAzxkNhyvPXsgx-6" value="" style="edgeStyle=orthogonalEdgeStyle;rounded=0;orthogonalLoop=1;jettySize=auto;html=1;" parent="1" source="mabKHqCAzxkNhyvPXsgx-3" target="mabKHqCAzxkNhyvPXsgx-5" edge="1">
          <mxGeometry relative="1" as="geometry" />
        </mxCell>
        <mxCell id="mabKHqCAzxkNhyvPXsgx-3" value="&lt;b&gt;&lt;font style=&quot;font-size: 14px;&quot;&gt;User - buy a car&lt;br&gt;Bot - Sure, I can get you recommendation based on you inputs. Can you tell me which company of car you are looking to buy?&lt;/font&gt;&lt;/b&gt;" style="rounded=1;whiteSpace=wrap;html=1;" parent="1" vertex="1">
          <mxGeometry x="360" y="120" width="200" height="120" as="geometry" />
        </mxCell>
        <mxCell id="mabKHqCAzxkNhyvPXsgx-8" value="" style="edgeStyle=orthogonalEdgeStyle;rounded=0;orthogonalLoop=1;jettySize=auto;html=1;" parent="1" source="mabKHqCAzxkNhyvPXsgx-5" target="mabKHqCAzxkNhyvPXsgx-7" edge="1">
          <mxGeometry relative="1" as="geometry" />
        </mxCell>
        <mxCell id="mabKHqCAzxkNhyvPXsgx-5" value="&lt;b&gt;&lt;font style=&quot;font-size: 14px;&quot;&gt;User - user provides car company&lt;br&gt;Bot - Okay, is there a specific model are you looking for?&lt;/font&gt;&lt;/b&gt;" style="rounded=1;whiteSpace=wrap;html=1;" parent="1" vertex="1">
          <mxGeometry x="600" y="120" width="200" height="120" as="geometry" />
        </mxCell>
        <mxCell id="mabKHqCAzxkNhyvPXsgx-10" value="" style="edgeStyle=orthogonalEdgeStyle;rounded=0;orthogonalLoop=1;jettySize=auto;html=1;" parent="1" source="mabKHqCAzxkNhyvPXsgx-7" target="mabKHqCAzxkNhyvPXsgx-9" edge="1">
          <mxGeometry relative="1" as="geometry" />
        </mxCell>
        <mxCell id="mabKHqCAzxkNhyvPXsgx-7" value="&lt;b&gt;&lt;font style=&quot;font-size: 14px;&quot;&gt;User - user provides car model&lt;br&gt;Bot - great, please let me know which varient of the car&amp;nbsp; you are looking for patrol, diesel, or gas?&lt;/font&gt;&lt;/b&gt;" style="rounded=1;whiteSpace=wrap;html=1;" parent="1" vertex="1">
          <mxGeometry x="840" y="120" width="200" height="120" as="geometry" />
        </mxCell>
        <mxCell id="mabKHqCAzxkNhyvPXsgx-12" value="" style="edgeStyle=orthogonalEdgeStyle;rounded=0;orthogonalLoop=1;jettySize=auto;html=1;" parent="1" source="mabKHqCAzxkNhyvPXsgx-9" target="mabKHqCAzxkNhyvPXsgx-11" edge="1">
          <mxGeometry relative="1" as="geometry" />
        </mxCell>
        <mxCell id="mabKHqCAzxkNhyvPXsgx-9" value="&lt;b&gt;&lt;font style=&quot;font-size: 14px;&quot;&gt;User - user provides car varient&lt;br&gt;Bot - Okay, finaly what is your price range for this purchase? You can say below 5 lakhs, between 3 to 5 lakhs.&lt;/font&gt;&lt;/b&gt;" style="rounded=1;whiteSpace=wrap;html=1;" parent="1" vertex="1">
          <mxGeometry x="840" y="280" width="200" height="120" as="geometry" />
        </mxCell>
        <mxCell id="mabKHqCAzxkNhyvPXsgx-14" value="" style="edgeStyle=orthogonalEdgeStyle;rounded=0;orthogonalLoop=1;jettySize=auto;html=1;" parent="1" source="mabKHqCAzxkNhyvPXsgx-11" target="mabKHqCAzxkNhyvPXsgx-13" edge="1">
          <mxGeometry relative="1" as="geometry" />
        </mxCell>
        <mxCell id="mabKHqCAzxkNhyvPXsgx-11" value="&lt;b&gt;&lt;font style=&quot;&quot;&gt;&lt;font style=&quot;font-size: 12px;&quot;&gt;User - user provides car price range&lt;br&gt;Bot - Here are some suggestions based on your inputs.&lt;br&gt;1 first suggestion&lt;br&gt;2 second suggestion&lt;br&gt;Please select a number to get more info.&lt;/font&gt;&lt;br&gt;&lt;/font&gt;&lt;/b&gt;" style="rounded=1;whiteSpace=wrap;html=1;" parent="1" vertex="1">
          <mxGeometry x="840" y="440" width="200" height="120" as="geometry" />
        </mxCell>
        <mxCell id="mabKHqCAzxkNhyvPXsgx-17" value="" style="edgeStyle=orthogonalEdgeStyle;rounded=0;orthogonalLoop=1;jettySize=auto;html=1;" parent="1" source="mabKHqCAzxkNhyvPXsgx-13" target="mabKHqCAzxkNhyvPXsgx-16" edge="1">
          <mxGeometry relative="1" as="geometry" />
        </mxCell>
        <mxCell id="mabKHqCAzxkNhyvPXsgx-19" value="" style="edgeStyle=orthogonalEdgeStyle;rounded=0;orthogonalLoop=1;jettySize=auto;html=1;" parent="1" source="mabKHqCAzxkNhyvPXsgx-13" target="mabKHqCAzxkNhyvPXsgx-15" edge="1">
          <mxGeometry relative="1" as="geometry" />
        </mxCell>
        <mxCell id="mabKHqCAzxkNhyvPXsgx-13" value="&lt;b&gt;&lt;font style=&quot;&quot;&gt;&lt;font style=&quot;font-size: 12px;&quot;&gt;User - select the car&lt;br&gt;Bot - Good choice, before I provide you more information, I will ask you a few questions to get in touch with you.&lt;br&gt;&lt;/font&gt;Is it okay with you?&lt;br&gt;&lt;/font&gt;&lt;/b&gt;" style="rounded=1;whiteSpace=wrap;html=1;" parent="1" vertex="1">
          <mxGeometry x="840" y="600" width="200" height="120" as="geometry" />
        </mxCell>
        <mxCell id="mabKHqCAzxkNhyvPXsgx-21" value="" style="edgeStyle=orthogonalEdgeStyle;rounded=0;orthogonalLoop=1;jettySize=auto;html=1;" parent="1" source="mabKHqCAzxkNhyvPXsgx-15" target="mabKHqCAzxkNhyvPXsgx-20" edge="1">
          <mxGeometry relative="1" as="geometry" />
        </mxCell>
        <mxCell id="mabKHqCAzxkNhyvPXsgx-15" value="&lt;b&gt;&lt;font style=&quot;&quot;&gt;&lt;font style=&quot;font-size: 12px;&quot;&gt;User - yes&lt;br&gt;Bot - Please let me know your full name.&lt;/font&gt;&lt;br&gt;&lt;/font&gt;&lt;/b&gt;" style="rounded=1;whiteSpace=wrap;html=1;" parent="1" vertex="1">
          <mxGeometry x="840" y="760" width="200" height="120" as="geometry" />
        </mxCell>
        <mxCell id="mabKHqCAzxkNhyvPXsgx-16" value="&lt;b&gt;&lt;font style=&quot;&quot;&gt;&lt;font style=&quot;font-size: 12px;&quot;&gt;User - No&lt;br&gt;Bot - Here is the more information about the car you selected.&lt;/font&gt;&lt;br&gt;&lt;/font&gt;&lt;/b&gt;" style="rounded=1;whiteSpace=wrap;html=1;" parent="1" vertex="1">
          <mxGeometry x="600" y="600" width="200" height="120" as="geometry" />
        </mxCell>
        <mxCell id="mabKHqCAzxkNhyvPXsgx-26" value="" style="edgeStyle=orthogonalEdgeStyle;rounded=0;orthogonalLoop=1;jettySize=auto;html=1;" parent="1" source="mabKHqCAzxkNhyvPXsgx-20" target="mabKHqCAzxkNhyvPXsgx-25" edge="1">
          <mxGeometry relative="1" as="geometry" />
        </mxCell>
        <mxCell id="mabKHqCAzxkNhyvPXsgx-20" value="&lt;b&gt;&lt;font style=&quot;&quot;&gt;&lt;font style=&quot;font-size: 12px;&quot;&gt;User - user provides name&lt;br&gt;Bot - what is the best number to reach you&lt;/font&gt;&lt;br&gt;&lt;/font&gt;&lt;/b&gt;" style="rounded=1;whiteSpace=wrap;html=1;" parent="1" vertex="1">
          <mxGeometry x="840" y="920" width="200" height="120" as="geometry" />
        </mxCell>
        <mxCell id="mabKHqCAzxkNhyvPXsgx-24" value="" style="edgeStyle=orthogonalEdgeStyle;rounded=0;orthogonalLoop=1;jettySize=auto;html=1;" parent="1" source="mabKHqCAzxkNhyvPXsgx-23" target="mabKHqCAzxkNhyvPXsgx-11" edge="1">
          <mxGeometry relative="1" as="geometry" />
        </mxCell>
        <mxCell id="mabKHqCAzxkNhyvPXsgx-23" value="&lt;h1&gt;API Call&lt;/h1&gt;&lt;p&gt;Call the get listing API to get the latest listings based on the input parameters.&lt;/p&gt;" style="text;html=1;strokeColor=none;fillColor=none;spacing=5;spacingTop=-20;whiteSpace=wrap;overflow=hidden;rounded=0;" parent="1" vertex="1">
          <mxGeometry x="610" y="440" width="190" height="120" as="geometry" />
        </mxCell>
        <mxCell id="mabKHqCAzxkNhyvPXsgx-28" value="" style="edgeStyle=orthogonalEdgeStyle;rounded=0;orthogonalLoop=1;jettySize=auto;html=1;" parent="1" source="mabKHqCAzxkNhyvPXsgx-25" target="mabKHqCAzxkNhyvPXsgx-27" edge="1">
          <mxGeometry relative="1" as="geometry" />
        </mxCell>
        <mxCell id="eGzTbKaTsQihf1F2vK01-1" value="" style="edgeStyle=orthogonalEdgeStyle;rounded=0;orthogonalLoop=1;jettySize=auto;html=1;" parent="1" source="mabKHqCAzxkNhyvPXsgx-25" target="mabKHqCAzxkNhyvPXsgx-29" edge="1">
          <mxGeometry relative="1" as="geometry" />
        </mxCell>
        <mxCell id="mabKHqCAzxkNhyvPXsgx-25" value="&lt;b&gt;&lt;font style=&quot;&quot;&gt;&lt;font style=&quot;font-size: 12px;&quot;&gt;User - user provides mobile number&lt;br&gt;Bot - Thank you, here are the more information about the car option you selected.&lt;br&gt;&lt;/font&gt;&lt;br&gt;Do you want to schedule a call.&lt;br&gt;&lt;/font&gt;&lt;/b&gt;" style="rounded=1;whiteSpace=wrap;html=1;" parent="1" vertex="1">
          <mxGeometry x="1080" y="920" width="200" height="120" as="geometry" />
        </mxCell>
        <mxCell id="mabKHqCAzxkNhyvPXsgx-27" value="&lt;b&gt;&lt;font style=&quot;&quot;&gt;&lt;font style=&quot;font-size: 12px;&quot;&gt;User - yes&lt;br&gt;Bot - Thank you, someone from our team will give you a call on your number.&lt;/font&gt;&lt;br&gt;&lt;/font&gt;&lt;/b&gt;" style="rounded=1;whiteSpace=wrap;html=1;" parent="1" vertex="1">
          <mxGeometry x="1320" y="920" width="200" height="120" as="geometry" />
        </mxCell>
        <mxCell id="mabKHqCAzxkNhyvPXsgx-29" value="&lt;b&gt;&lt;font style=&quot;&quot;&gt;&lt;font style=&quot;font-size: 12px;&quot;&gt;User - No&lt;br&gt;Bot - Thank you for using our service, please let me know if you need anything.&lt;/font&gt;&lt;br&gt;&lt;/font&gt;&lt;/b&gt;" style="rounded=1;whiteSpace=wrap;html=1;" parent="1" vertex="1">
          <mxGeometry x="1080" y="760" width="200" height="120" as="geometry" />
        </mxCell>
        <mxCell id="BKslE8N0Xpy9U4q9M5Rh-3" style="edgeStyle=orthogonalEdgeStyle;rounded=0;orthogonalLoop=1;jettySize=auto;html=1;" parent="1" source="eGzTbKaTsQihf1F2vK01-2" target="eGzTbKaTsQihf1F2vK01-6" edge="1">
          <mxGeometry relative="1" as="geometry" />
        </mxCell>
        <mxCell id="eGzTbKaTsQihf1F2vK01-2" value="&lt;b&gt;&lt;font style=&quot;font-size: 14px;&quot;&gt;User - sell a car&lt;br&gt;Bot - I can help you sell your car. I will ask you some question about the car and you?&lt;br&gt;&lt;/font&gt;&lt;/b&gt;&lt;b&gt;&lt;font style=&quot;font-size: 14px;&quot;&gt;Who is the manuacturer of the car that you want to sell?&lt;/font&gt;&lt;/b&gt;&lt;b&gt;&lt;font style=&quot;font-size: 14px;&quot;&gt;&lt;br&gt;&lt;/font&gt;&lt;/b&gt;" style="rounded=1;whiteSpace=wrap;html=1;" parent="1" vertex="1">
          <mxGeometry x="120" y="280" width="200" height="120" as="geometry" />
        </mxCell>
        <mxCell id="eGzTbKaTsQihf1F2vK01-9" value="" style="edgeStyle=orthogonalEdgeStyle;rounded=0;orthogonalLoop=1;jettySize=auto;html=1;" parent="1" source="eGzTbKaTsQihf1F2vK01-6" target="eGzTbKaTsQihf1F2vK01-8" edge="1">
          <mxGeometry relative="1" as="geometry" />
        </mxCell>
        <mxCell id="eGzTbKaTsQihf1F2vK01-6" value="&lt;b&gt;&lt;font style=&quot;font-size: 14px;&quot;&gt;User - user provides the car company&lt;br&gt;Bot - What is the model name and variant of the car?&lt;/font&gt;&lt;/b&gt;" style="rounded=1;whiteSpace=wrap;html=1;" parent="1" vertex="1">
          <mxGeometry x="120" y="600" width="200" height="120" as="geometry" />
        </mxCell>
        <mxCell id="eGzTbKaTsQihf1F2vK01-11" value="" style="edgeStyle=orthogonalEdgeStyle;rounded=0;orthogonalLoop=1;jettySize=auto;html=1;" parent="1" source="eGzTbKaTsQihf1F2vK01-8" target="eGzTbKaTsQihf1F2vK01-10" edge="1">
          <mxGeometry relative="1" as="geometry" />
        </mxCell>
        <mxCell id="eGzTbKaTsQihf1F2vK01-8" value="&lt;b&gt;&lt;font style=&quot;font-size: 14px;&quot;&gt;User - user provides the car model and variant&lt;br&gt;Bot - Okay, what is the year of the purchase of your car?&lt;/font&gt;&lt;/b&gt;" style="rounded=1;whiteSpace=wrap;html=1;" parent="1" vertex="1">
          <mxGeometry x="120" y="760" width="200" height="120" as="geometry" />
        </mxCell>
        <mxCell id="eGzTbKaTsQihf1F2vK01-14" value="" style="edgeStyle=orthogonalEdgeStyle;rounded=0;orthogonalLoop=1;jettySize=auto;html=1;" parent="1" source="eGzTbKaTsQihf1F2vK01-10" target="eGzTbKaTsQihf1F2vK01-12" edge="1">
          <mxGeometry relative="1" as="geometry" />
        </mxCell>
        <mxCell id="BKslE8N0Xpy9U4q9M5Rh-2" value="" style="edgeStyle=orthogonalEdgeStyle;rounded=0;orthogonalLoop=1;jettySize=auto;html=1;" parent="1" source="eGzTbKaTsQihf1F2vK01-10" target="BKslE8N0Xpy9U4q9M5Rh-1" edge="1">
          <mxGeometry relative="1" as="geometry" />
        </mxCell>
        <mxCell id="eGzTbKaTsQihf1F2vK01-10" value="&lt;b&gt;&lt;font style=&quot;&quot;&gt;&lt;font style=&quot;font-size: 12px;&quot;&gt;User - user provides the car purchase year&lt;br&gt;Bot - great, some from our team will get in touch with you.&lt;br&gt;Would you like to provide your name and mobile number?&lt;/font&gt;&lt;br&gt;&lt;/font&gt;&lt;/b&gt;" style="rounded=1;whiteSpace=wrap;html=1;" parent="1" vertex="1">
          <mxGeometry x="120" y="920" width="200" height="120" as="geometry" />
        </mxCell>
        <mxCell id="eGzTbKaTsQihf1F2vK01-15" value="" style="edgeStyle=orthogonalEdgeStyle;rounded=0;orthogonalLoop=1;jettySize=auto;html=1;" parent="1" source="eGzTbKaTsQihf1F2vK01-12" target="eGzTbKaTsQihf1F2vK01-13" edge="1">
          <mxGeometry relative="1" as="geometry" />
        </mxCell>
        <mxCell id="eGzTbKaTsQihf1F2vK01-12" value="&lt;b&gt;&lt;font style=&quot;&quot;&gt;&lt;font style=&quot;font-size: 12px;&quot;&gt;User - yes&lt;br&gt;Bot - Please let me know your full name.&lt;/font&gt;&lt;br&gt;&lt;/font&gt;&lt;/b&gt;" style="rounded=1;whiteSpace=wrap;html=1;" parent="1" vertex="1">
          <mxGeometry x="360" y="920" width="200" height="120" as="geometry" />
        </mxCell>
        <mxCell id="eGzTbKaTsQihf1F2vK01-19" value="" style="edgeStyle=orthogonalEdgeStyle;rounded=0;orthogonalLoop=1;jettySize=auto;html=1;" parent="1" source="eGzTbKaTsQihf1F2vK01-13" target="eGzTbKaTsQihf1F2vK01-18" edge="1">
          <mxGeometry relative="1" as="geometry" />
        </mxCell>
        <mxCell id="eGzTbKaTsQihf1F2vK01-13" value="&lt;b&gt;&lt;font style=&quot;&quot;&gt;&lt;font style=&quot;font-size: 12px;&quot;&gt;User - user provides name&lt;br&gt;Bot - what is the best number to reach you&lt;/font&gt;&lt;br&gt;&lt;/font&gt;&lt;/b&gt;" style="rounded=1;whiteSpace=wrap;html=1;" parent="1" vertex="1">
          <mxGeometry x="600" y="920" width="200" height="120" as="geometry" />
        </mxCell>
        <mxCell id="eGzTbKaTsQihf1F2vK01-18" value="&lt;b&gt;&lt;font style=&quot;&quot;&gt;&lt;font style=&quot;font-size: 12px;&quot;&gt;User - user provides mobile number&lt;br&gt;Bot - Thank you for these information, we will get in touch with you.&lt;/font&gt;&lt;br&gt;&lt;/font&gt;&lt;/b&gt;" style="rounded=1;whiteSpace=wrap;html=1;" parent="1" vertex="1">
          <mxGeometry x="600" y="760" width="200" height="120" as="geometry" />
        </mxCell>
        <mxCell id="eGzTbKaTsQihf1F2vK01-21" value="" style="edgeStyle=orthogonalEdgeStyle;rounded=0;orthogonalLoop=1;jettySize=auto;html=1;" parent="1" source="eGzTbKaTsQihf1F2vK01-20" target="eGzTbKaTsQihf1F2vK01-18" edge="1">
          <mxGeometry relative="1" as="geometry" />
        </mxCell>
        <mxCell id="eGzTbKaTsQihf1F2vK01-20" value="&lt;h1&gt;API Call&lt;/h1&gt;&lt;div&gt;Call API to save these information into the database.&lt;/div&gt;" style="text;html=1;strokeColor=none;fillColor=none;spacing=5;spacingTop=-20;whiteSpace=wrap;overflow=hidden;rounded=0;" parent="1" vertex="1">
          <mxGeometry x="370" y="760" width="190" height="120" as="geometry" />
        </mxCell>
        <mxCell id="eGzTbKaTsQihf1F2vK01-23" value="" style="edgeStyle=orthogonalEdgeStyle;rounded=0;orthogonalLoop=1;jettySize=auto;html=1;" parent="1" source="eGzTbKaTsQihf1F2vK01-22" target="mabKHqCAzxkNhyvPXsgx-27" edge="1">
          <mxGeometry relative="1" as="geometry" />
        </mxCell>
        <mxCell id="eGzTbKaTsQihf1F2vK01-22" value="&lt;h1&gt;API Call&lt;/h1&gt;&lt;p&gt;Save these information to the database.&lt;/p&gt;" style="text;html=1;strokeColor=none;fillColor=none;spacing=5;spacingTop=-20;whiteSpace=wrap;overflow=hidden;rounded=0;" parent="1" vertex="1">
          <mxGeometry x="1325" y="760" width="190" height="120" as="geometry" />
        </mxCell>
        <mxCell id="eGzTbKaTsQihf1F2vK01-27" value="" style="edgeStyle=orthogonalEdgeStyle;rounded=0;orthogonalLoop=1;jettySize=auto;html=1;" parent="1" source="eGzTbKaTsQihf1F2vK01-24" target="eGzTbKaTsQihf1F2vK01-26" edge="1">
          <mxGeometry relative="1" as="geometry" />
        </mxCell>
        <mxCell id="eGzTbKaTsQihf1F2vK01-24" value="&lt;b&gt;&lt;font style=&quot;font-size: 14px;&quot;&gt;User - get the status of my purchase&lt;br&gt;Bot - Sure, I can help you with that, can you please provide the registered mobile number you provided?&lt;/font&gt;&lt;/b&gt;" style="rounded=1;whiteSpace=wrap;html=1;" parent="1" vertex="1">
          <mxGeometry x="-240" y="120" width="200" height="120" as="geometry" />
        </mxCell>
        <mxCell id="eGzTbKaTsQihf1F2vK01-26" value="&lt;b&gt;&lt;font style=&quot;font-size: 14px;&quot;&gt;User - user provide mobile number&lt;br&gt;Bot - Here is the information about the purchase.&lt;/font&gt;&lt;/b&gt;" style="rounded=1;whiteSpace=wrap;html=1;" parent="1" vertex="1">
          <mxGeometry x="-240" y="280" width="200" height="120" as="geometry" />
        </mxCell>
        <mxCell id="eGzTbKaTsQihf1F2vK01-29" value="" style="edgeStyle=orthogonalEdgeStyle;rounded=0;orthogonalLoop=1;jettySize=auto;html=1;" parent="1" source="eGzTbKaTsQihf1F2vK01-28" target="eGzTbKaTsQihf1F2vK01-26" edge="1">
          <mxGeometry relative="1" as="geometry" />
        </mxCell>
        <mxCell id="eGzTbKaTsQihf1F2vK01-28" value="&lt;h1&gt;API Call&lt;/h1&gt;&lt;div&gt;Get the information from the database.&lt;/div&gt;" style="text;html=1;strokeColor=none;fillColor=none;spacing=5;spacingTop=-20;whiteSpace=wrap;overflow=hidden;rounded=0;" parent="1" vertex="1">
          <mxGeometry x="-470" y="280" width="190" height="120" as="geometry" />
        </mxCell>
        <mxCell id="eGzTbKaTsQihf1F2vK01-30" value="&lt;b&gt;&lt;font style=&quot;font-size: 14px;&quot;&gt;User - general queries&lt;br&gt;Bot - Anwer the general quries.&lt;/font&gt;&lt;/b&gt;" style="rounded=1;whiteSpace=wrap;html=1;" parent="1" vertex="1">
          <mxGeometry x="120" y="-160" width="200" height="120" as="geometry" />
        </mxCell>
        <mxCell id="BKslE8N0Xpy9U4q9M5Rh-1" value="&lt;b&gt;&lt;font style=&quot;&quot;&gt;&lt;font style=&quot;font-size: 12px;&quot;&gt;User - no&lt;br&gt;Bot - Okay, is there anything I can help you with?&lt;/font&gt;&lt;br&gt;&lt;/font&gt;&lt;/b&gt;" style="rounded=1;whiteSpace=wrap;html=1;" parent="1" vertex="1">
          <mxGeometry x="120" y="1200" width="200" height="120" as="geometry" />
        </mxCell>
        <mxCell id="jM1BPUIb_vDCfauSouuw-2" value="" style="text;html=1;strokeColor=none;fillColor=none;align=center;verticalAlign=middle;whiteSpace=wrap;rounded=0;" vertex="1" parent="1">
          <mxGeometry x="311" y="1440" width="206" height="30" as="geometry" />
        </mxCell>
      </root>
    </mxGraphModel>
  </diagram>
</mxfile>
